HIERARCHY
ROOT Hips
{
    OFFSET 0.000000 0.000000 0.000000
    CHANNELS 6 Xposition Yposition Zposition Zrotation Xrotation Yrotation
        JOINT Chest
        {
            OFFSET -0.000000 31.935503 -0.000000
            CHANNELS 3 Zrotation Xrotation Yrotation
            JOINT Neck
            {
                OFFSET -0.000000 23.713140 0.000000
                CHANNELS 3 Zrotation Xrotation Yrotation
                JOINT Head
                {
                    OFFSET -0.000000 10.938888 0.000000
                    CHANNELS 3 Zrotation Xrotation Yrotation
                    End Site
                    {
                        OFFSET -0.000000 16.905556 0.000000
                    }
                }
            }
            JOINT LeftCollar
            {
                OFFSET -0.000000 23.713140 0.000000
                CHANNELS 3 Zrotation Xrotation Yrotation
                JOINT LeftShoulder
                {
                    OFFSET 19.888887 -0.000000 0.000000
                    CHANNELS 3 Zrotation Xrotation Yrotation
                    JOINT LeftElbow
                    {
                        OFFSET 23.906332 0.000000 0.000000
                        CHANNELS 3 Zrotation Xrotation Yrotation
                        JOINT LeftWrist
                        {
                            OFFSET 25.116924 0.000000 0.000000
                            CHANNELS 3 Zrotation Xrotation Yrotation
                            End Site
                            {
                                OFFSET 0.000000 -14.916667 0.000000
                            }
                        }
                    }
                }
            }
            JOINT RightCollar
            {
                OFFSET -0.000000 23.713140 0.000000
                CHANNELS 3 Zrotation Xrotation Yrotation
                JOINT RightShoulder
                {
                    OFFSET -19.888887 0.000000 0.000000
                    CHANNELS 3 Zrotation Xrotation Yrotation
                    JOINT RightElbow
                    {
                        OFFSET -23.906332 0.000000 0.000000
                        CHANNELS 3 Zrotation Xrotation Yrotation
                        JOINT RightWrist
                        {
                            OFFSET -25.116924 0.000000 0.000000
                            CHANNELS 3 Zrotation Xrotation Yrotation
                            End Site
                            {
                                OFFSET -0.000000 -14.916667 0.000000
                            }
                        }
                    }
                }
            }
        }
    JOINT LeftHip
    {
        OFFSET 11.933332 0.000000 0.000000
        CHANNELS 3 Zrotation Xrotation Yrotation
        JOINT LeftKnee
        {
            OFFSET -0.000000 -35.996647 0.000000
            CHANNELS 3 Zrotation Xrotation Yrotation
            JOINT LeftAnkle
            {
                OFFSET -0.000000 -39.788193 0.000000
                CHANNELS 3 Zrotation Xrotation Yrotation
                End Site
                {
                    OFFSET -0.000000 -4.972222 16.905556
                }
            }
        }
    }
    JOINT RightHip
    {
        OFFSET -11.933332 0.000000 0.000000
        CHANNELS 3 Zrotation Xrotation Yrotation
        JOINT RightKnee
        {
            OFFSET -0.000000 -35.996647 0.000000
            CHANNELS 3 Zrotation Xrotation Yrotation
            JOINT RightAnkle
            {
                OFFSET -0.000000 -39.788193 0.000000
                CHANNELS 3 Zrotation Xrotation Yrotation
                End Site
                {
                    OFFSET -0.000000 -4.972222 16.905556
                }
            }
        }
    }
}
MOTION
Frames:    10
Frame Time:    0.010000
-51.319103    88.737526    -7.241298    -1.341629    10.711582    -71.146828    -4.105642    12.131464    12.879297    7.844501    13.561933    21.547218    -21.986027    -25.544861    20.046911    -19.019768    1.659342    -9.764256    -41.790245    20.454920    -17.351118    3.804264    -0.507389    -16.015234    105.311775    17.898157    71.247749    12.634350    -0.591463    -5.030036    -41.012932    49.515015    124.523796    0.156108    0.009720    21.403126    -87.340508    3.127245    -44.805763    6.406365    -3.676684    4.555890    2.063746    3.262457    6.541983    -0.280961    -3.877406    9.714288    -2.447409    -0.211430    -7.909231    4.273480    14.790103    -17.823761    6.447741    3.642000    11.597533    
-51.328098    88.732941    -7.226598    -1.350963    10.688442    -71.126732    -3.732877    12.612899    12.865362    11.032448    9.976830    18.697540    -20.044308    -26.007605    14.755574    -18.390480    1.983351    -14.945337    -42.065723    21.564663    -17.084551    3.548463    -0.485132    -15.687026    105.548965    17.640018    70.884872    12.923523    -0.964653    -11.365555    -39.995392    47.857231    123.814804    -0.285715    -0.097921    20.978640    -87.082848    2.933058    -44.849060    6.367450    -3.559476    3.845183    2.034069    3.080087    7.290406    -0.276565    -3.766050    9.656210    -2.488785    -0.208357    -7.937077    4.305350    14.822652    -17.650030    6.485819    3.661119    11.376536    
-51.327419    88.716087    -7.230231    -1.355135    10.691528    -71.119316    -3.718956    12.613035    12.853779    11.050532    9.927692    18.735062    -20.317478    -25.555130    15.048142    -18.319258    2.196008    -14.888667    -41.886414    21.456495    -17.370708    3.686233    -0.494991    -15.872508    105.424301    17.817917    71.009766    12.894705    -1.127681    -11.330048    -40.121418    47.987865    123.947517    -0.040862    -0.033464    21.205713    -87.207123    3.037457    -44.896595    6.381643    -3.598345    4.061541    2.035522    3.170636    6.994967    -0.251185    -3.832171    9.732315    -2.487269    -0.225424    -7.934611    4.310645    14.864331    -17.769609    6.654339    3.725626    11.408655    
-51.334835    88.717178    -7.227946    -1.360352    10.684021    -71.111221    -3.710241    12.617718    12.847608    11.049445    9.913999    18.747202    -20.295921    -25.525547    15.066152    -18.284622    2.307905    -14.881672    -41.796051    21.385029    -17.508951    3.736507    -0.538420    -15.961752    105.418633    17.904253    71.031418    12.879656    -1.207853    -11.328151    -40.185287    48.050568    124.015694    0.071383    0.010208    21.313641    -87.241165    3.083700    -44.946205    6.375439    -3.578520    3.945974    2.027926    3.154704    7.093946    -0.212490    -3.818796    9.735280    -2.501438    -0.230592    -7.941407    4.322675    14.892385    -17.759924    6.740670    3.749567    11.350317    
-51.344196    88.720047    -7.225956    -1.367223    10.675248    -71.102943    -3.699790    12.623159    12.843476    11.055805    9.896852    18.757717    -20.285852    -25.481056    15.086362    -18.266453    2.360976    -14.875257    -41.733662    21.357258    -17.595009    3.778399    -0.521319    -16.011238    105.384666    17.970541    71.072784    12.875818    -1.242029    -11.327422    -40.205135    48.074703    124.036133    0.145568    0.002406    21.368200    -87.268387    3.097705    -44.956413    6.369396    -3.558448    3.840868    2.020532    3.142826    7.184266    -0.159258    -3.803178    9.734499    -2.516151    -0.234747    -7.946041    4.335248    14.922911    -17.750887    6.859966    3.776660    11.274938    
-51.354946    88.723770    -7.224351    -1.375995    10.665451    -71.094795    -3.687535    12.629152    12.842336    11.068445    9.879804    18.766451    -20.284433    -25.430363    15.104358    -18.256853    2.387375    -14.869493    -41.685562    21.351587    -17.656679    3.790570    -0.545395    -16.030922    105.407082    18.010077    71.046417    12.877453    -1.262532    -11.327271    -40.202049    48.088474    124.035667    0.153235    0.035448    21.374937    -87.232895    3.078611    -45.010777    6.363797    -3.538841    3.753278    2.013880    3.136330    7.260756    -0.095891    -3.786715    9.729069    -2.530339    -0.237050    -7.947546    4.347714    14.954444    -17.743132    7.028853    3.810632    11.173619    
-51.366470    88.727608    -7.223234    -1.386660    10.654912    -71.086853    -3.673252    12.636053    12.844535    11.085241    9.864869    18.773338    -20.290651    -25.377361    15.119631    -18.250105    2.406053    -14.864111    -41.642647    21.356123    -17.712469    3.810905    -0.510072    -16.031164    105.388893    18.040859    71.069481    12.880349    -1.291644    -11.327559    -40.192707    48.110504    124.033493    0.149344    0.012685    21.347198    -87.226860    3.038582    -45.014431    6.358772    -3.520630    3.687793    2.008519    3.136236    7.320138    -0.029802    -3.771464    9.719087    -2.543273    -0.237005    -7.945834    4.359662    14.985770    -17.737152    7.257387    3.853977    11.041242    
-51.378178    88.731049    -7.222717    -1.398809    10.643910    -71.079140    -3.656870    12.644035    12.849841    11.104306    9.853967    18.777542    -20.303543    -25.326284    15.130711    -18.247475    2.405355    -14.860572    -41.599041    21.386232    -17.762875    3.824444    -0.543072    -16.037724    105.416206    18.064913    71.045944    12.891481    -1.293874    -11.329412    -40.153706    48.121868    123.982407    0.181408    0.055262    21.365648    -87.220177    3.017073    -45.062374    6.354318    -3.504871    3.646425    2.004852    3.143104    7.360221    0.029787    -3.759725    9.706188    -2.554767    -0.234660    -7.941706    4.370847    15.015871    -17.734575    7.544622    3.907434    10.880580    
-51.389587    88.733765    -7.222953    -1.412037    10.632856    -71.071533    -3.638407    12.653543    12.857408    11.122888    9.847874    18.779617    -20.320181    -25.279699    15.138593    -18.247578    2.376438    -14.858019    -41.562218    21.453255    -17.800985    3.868466    -0.526620    -16.048384    105.376541    18.097170    71.099045    12.908617    -1.277131    -11.332382    -40.090191    48.118664    123.901512    0.228813    0.037015    21.368433    -87.262268    2.989955    -45.045464    6.350682    -3.492315    3.628581    2.002905    3.157010    7.380401    0.073723    -3.753684    9.692948    -2.564823    -0.230466    -7.936700    4.381261    15.044565    -17.736425    7.878491    3.969231    10.700225    
-51.400375    88.735695    -7.224067    -1.425770    10.622027    -71.063934    -3.618106    12.664689    12.866351    11.139459    9.845987    18.779715    -20.338179    -25.238768    15.143116    -18.223989    2.405635    -14.857965    -41.549080    21.482391    -17.860306    3.864704    -0.546122    -15.987211    105.394341    18.072170    71.063240    12.923185    -1.280050    -11.337917    -40.030521    48.123039    123.837753    0.205998    0.049340    21.312046    -87.243576    2.934196    -45.054939    6.347954    -3.483296    3.631053    2.002509    3.177275    7.381507    0.095041    -3.754736    9.682592    -2.573843    -0.224954    -7.932335    4.391135    15.071694    -17.743666    8.238676    4.036119    10.513297    
